<svg width="138" height="154" viewBox="0 0 138 154" fill="none" xmlns="http://www.w3.org/2000/svg">
<path d="M122.284 25.1494L114.666 29.7387C114.329 29.9529 113.977 30.0447 113.61 30.0141C113.243 29.9835 112.922 29.8611 112.646 29.6469C112.371 29.4328 112.157 29.1654 112.004 28.8447C111.851 28.5241 111.82 28.1643 111.912 27.7653L113.931 19.0915L107.185 13.2631C106.879 12.9877 106.688 12.6738 106.612 12.3214C106.536 11.9689 106.559 11.625 106.68 11.2897C106.801 10.9544 106.985 10.679 107.231 10.4636C107.477 10.2482 107.813 10.1106 108.241 10.0506L117.144 9.2704L120.586 1.10143C120.739 0.73429 120.976 0.458931 121.298 0.275358C121.62 0.0917859 121.949 0 122.284 0C122.619 0 122.948 0.0917859 123.27 0.275358C123.591 0.458931 123.829 0.73429 123.982 1.10143L127.424 9.2704L136.327 10.0506C136.755 10.1118 137.092 10.2495 137.337 10.4636C137.582 10.6778 137.765 10.9532 137.887 11.2897C138.01 11.6263 138.033 11.9708 137.957 12.3232C137.881 12.6757 137.69 12.989 137.383 13.2631L130.636 19.0915L132.656 27.7653C132.747 28.1631 132.717 28.5229 132.564 28.8447C132.411 29.1666 132.197 29.434 131.921 29.6469C131.646 29.8599 131.325 29.9823 130.958 30.0141C130.591 30.0459 130.239 29.9541 129.902 29.7387L122.284 25.1494Z" fill="#F4C430"/>
<g clip-path="url(#clip0_238_2757)">
<path d="M114.135 36.5865L121.116 19.8865C121.676 18.5475 120.465 17.2613 119.095 17.7396L102.006 23.7054C100.457 24.2458 100.343 26.3907 101.836 26.8937L108.186 29.0338C108.68 29.2002 109.051 29.5942 109.187 30.0972L110.942 36.5646C111.355 38.0848 113.502 38.0996 114.135 36.5865Z" stroke="#649F87" stroke-width="1.5"/>
</g>
<path d="M0.75195 135.035C22.0188 147.304 51.1213 159.966 60.6216 146.494C68.7487 130.825 18.6556 113.967 11.9495 84.712C10.1197 76.73 15.8255 68.8546 23.9034 67.5103C47.931 63.5115 68.4534 88.4251 95.8627 91.4042C105.091 92.4072 113.692 84.7106 109.053 76.6702C105.955 71.3019 100.678 66.0538 95.8021 60.9721C87.51 52.3304 91.3022 40.7023 101.479 34.3874L108.486 30.0389" stroke="url(#paint0_linear_238_2757)" stroke-width="3.00391"/>
<defs>
<linearGradient id="paint0_linear_238_2757" x1="112.576" y1="30.0391" x2="20.4563" y2="141.184" gradientUnits="userSpaceOnUse">
<stop stop-color="#5FA08B"/>
<stop offset="1" stop-color="#F48422"/>
</linearGradient>
<clipPath id="clip0_238_2757">
<rect width="24" height="24" fill="white" transform="translate(113.03 41.9804) scale(1.0013) rotate(-133.278)"/>
</clipPath>
</defs>
</svg>
